<?xml version="1.0" standalone="no"?>
<!DOCTYPE svg PUBLIC "-//W3C//DTD SVG 20010904//EN"
 "http://www.w3.org/TR/2001/REC-SVG-20010904/DTD/svg10.dtd">
<svg version="1.0" xmlns="http://www.w3.org/2000/svg"
 width="2880.000000pt" height="1294.000000pt" viewBox="0 0 2880.000000 1294.000000"
 preserveAspectRatio="xMidYMid meet">

<g transform="translate(0.000000,1294.000000) scale(0.100000,-0.100000)"
fill="#000000" stroke="none">
<path d="M4430 6478 l0 -2188 335 0 335 0 0 1440 c0 891 4 1440 9 1440 6 0
110 -87 233 -193 123 -106 378 -326 568 -489 521 -447 1135 -975 1620 -1393
370 -319 956 -823 1022 -878 l68 -58 0 449 0 450 -102 89 c-126 109 -1118 962
-1273 1093 -166 141 -814 698 -860 739 -23 20 -65 57 -95 82 -30 25 -217 185
-415 355 -198 170 -601 516 -895 768 -294 253 -538 464 -542 470 -4 6 -8 -973
-8 -2176z"/>
<path d="M21946 8628 c-7 -13 -64 -113 -126 -223 -62 -110 -135 -240 -163
-289 l-50 -90 29 -55 c17 -31 70 -126 118 -211 49 -85 150 -265 226 -400 75
-135 292 -522 483 -860 190 -338 349 -623 352 -632 7 -17 -55 -18 -1216 -18
l-1224 0 -49 -88 c-54 -95 -420 -744 -669 -1184 -87 -152 -157 -279 -157 -282
0 -3 162 -6 359 -6 l359 0 85 148 c46 81 151 264 232 407 81 143 163 288 183
323 l36 62 1211 0 1210 -1 54 -97 c29 -53 85 -151 123 -217 38 -66 133 -232
211 -370 l142 -250 363 -3 c199 -1 362 0 362 2 0 2 -43 80 -96 173 -53 92
-135 238 -184 323 -48 85 -125 223 -172 305 -47 83 -165 292 -263 465 -98 173
-215 380 -260 460 -45 80 -141 249 -212 375 -72 127 -179 316 -238 420 -59
105 -119 210 -133 235 -14 25 -80 142 -147 260 -67 118 -175 310 -240 425 -65
116 -182 323 -260 460 -78 138 -168 296 -199 353 -32 56 -60 102 -62 102 -2 0
-10 -10 -18 -22z"/>
<path d="M10915 8583 c-138 -17 -318 -50 -422 -79 -869 -238 -1462 -898 -1589
-1769 -23 -160 -24 -493 -1 -660 84 -614 394 -1124 882 -1455 505 -342 1188
-471 1875 -354 374 63 709 205 1002 425 125 93 330 306 421 437 322 460 449
1069 348 1663 -80 468 -341 925 -711 1242 -343 295 -777 484 -1240 542 -113
14 -476 19 -565 8z m392 -593 c737 -57 1315 -540 1461 -1221 54 -250 54 -478
0 -728 -123 -573 -560 -1019 -1143 -1165 -545 -137 -1124 -18 -1531 315 -480
392 -668 1058 -482 1704 78 268 267 550 492 731 294 236 629 355 1051 372 17
1 85 -3 152 -8z"/>
<path d="M16185 8314 c-132 -114 -346 -298 -475 -409 -129 -111 -368 -316
-530 -455 -162 -140 -407 -351 -545 -469 -684 -588 -668 -574 -651 -586 9 -7
44 -37 79 -67 57 -51 253 -219 1327 -1143 206 -177 525 -451 708 -608 l334
-287 484 0 c266 0 484 3 483 8 0 4 -143 129 -317 278 -307 262 -1381 1184
-1687 1447 -139 121 -209 180 -261 224 -119 99 -184 157 -183 162 0 3 151 134
335 291 184 157 344 294 357 305 20 18 701 603 1437 1233 157 135 294 253 305
263 19 19 8 19 -470 19 l-490 0 -240 -206z"/>
<path d="M18260 6405 l0 -2115 330 0 330 0 0 2115 0 2115 -330 0 -330 0 0
-2115z"/>
</g>
</svg>
