<svg xmlns="http://www.w3.org/2000/svg" viewBox="0 0 170 40" fill="#2C2C2C">
  <path d="M11.5 0H0v40h11.5V23.4L28.5 40H40L21.5 20 40 0H28.5L11.5 16.6V0zm45.8 0c-11.5 0-20.8 9-20.8 20s9.3 20 20.8 20 20.8-9 20.8-20S68.8 0 57.3 0zm0 31.5c-6.6 0-12-5.2-12-11.5s5.4-11.5 12-11.5 12 5.2 12 11.5-5.4 11.5-12 11.5zm34.2-31.5H80v40h11.5V23.4L110 40h11.5L103 20 121.5 0H110L91.5 16.6V0zm38.5 0h-11.5v40h11.5V0zm31.5 0l-11.5 40h11.5l2.3-8h15.4l2.3 8h11.5L170 0h-11.5zm-6.4 23.5l5.4-18.5 5.4 18.5h-10.8z"/>
</svg>
